<?xml version="1.0" encoding="utf-8"?>
<svg fill="none" height="24" width="24" xmlns="http://www.w3.org/2000/svg"><g fill="#000"><path d="m8.33 17.33h-2.66v1.34h2.66zm4 0h-2.66v1.34h2.66zm4 0h-2.66v1.34h2.66z"/><path d="m20.76 11.33h-2.01l-6.89-3.67-1.22-2.29a1.978 1.978 0 0 0 -3.72.93v.95l-1 1.88a.425.425 0 0 1 -.71.01l-.4-.72a2.023 2.023 0 0 0 -1.81-1.09h-1.67v7.1l-.31.29a2.32 2.32 0 0 0 -.69 1.67 2.279 2.279 0 0 0 2.28 2.28h1.72v-1.34h-1.72a.94.94 0 0 1 -.94-.94.973.973 0 0 1 .29-.7l.04-.04v.02h10.33v-1.34h-9.66v-5.66h.33a.7.7 0 0 1 .62.39l.42.75a1.755 1.755 0 0 0 3.07-.05l1.16-2.17v-1.29a.64.64 0 0 1 .63-.63.622.622 0 0 1 .55.34l1.41 2.65.69.37-.78 1.46 1.2.64.78-1.47 1.29.69-.78 1.47 1.19.64.78-1.48 1.28.68-.78 1.48 1.19.64.79-1.48.7.37h2.35a1.579 1.579 0 0 1 1.57 1.57 1.664 1.664 0 0 1 -.49 1.18 6.742 6.742 0 0 1 -4.17 1.88v1.34a8.093 8.093 0 0 0 5.12-2.26 3.002 3.002 0 0 0 .66-3.254 2.905 2.905 0 0 0 -2.69-1.796z"/></g></svg>