<svg version="1.1" id="Layer_1" xmlns="http://www.w3.org/2000/svg" xmlns:xlink="http://www.w3.org/1999/xlink" x="0px" y="0px" viewBox="0 0 122.88 121.96" style="enable-background:new 0 0 122.88 121.96" xml:space="preserve"><g><path d="M42.77,103.11h37.34c0.14,0,0.27,0.06,0.37,0.15c0.09,0.09,0.15,0.22,0.15,0.37v5.21c0,0.14-0.06,0.27-0.15,0.37 c-0.09,0.09-0.23,0.15-0.37,0.15H42.77c-0.14,0-0.27-0.06-0.37-0.15c-0.09-0.09-0.15-0.23-0.15-0.37v-5.21 c0-0.14,0.06-0.27,0.15-0.37C42.49,103.17,42.62,103.11,42.77,103.11L42.77,103.11z M61.79,12.93c3.38,0,6.61,0.67,9.56,1.89 c3.06,1.27,5.82,3.13,8.12,5.43c2.3,2.3,4.16,5.06,5.43,8.12c1.22,2.95,1.89,6.18,1.89,9.56c0,3.39-0.67,6.61-1.89,9.56 c-1.27,3.06-3.13,5.82-5.43,8.12c-2.3,2.3-5.06,4.16-8.12,5.43c-2.95,1.22-6.18,1.89-9.56,1.89c-3.38,0-6.61-0.67-9.56-1.89 c-3.06-1.27-5.82-3.13-8.12-5.43c-2.3-2.3-4.16-5.06-5.43-8.12c-1.22-2.95-1.89-6.18-1.89-9.56c0-3.38,0.67-6.61,1.89-9.56 c1.27-3.06,3.13-5.82,5.43-8.12c2.3-2.3,5.06-4.16,8.12-5.43C55.18,13.6,58.41,12.93,61.79,12.93L61.79,12.93z M14.64,7.59h23.51 c1.47-1.14,3.07-2.18,4.78-3.1c1.74-0.93,3.59-1.73,5.53-2.38c2.03-0.69,4.17-1.22,6.38-1.58C57,0.18,59.23,0,61.5,0 c2.27,0,4.5,0.18,6.66,0.53c2.21,0.36,4.35,0.89,6.38,1.58c1.94,0.66,3.79,1.46,5.53,2.38c1.72,0.92,3.32,1.95,4.78,3.1h23.38 c1.97,0,3.86,0.4,5.59,1.11c1.79,0.74,3.41,1.84,4.76,3.19c1.35,1.35,2.44,2.96,3.19,4.76c0.72,1.72,1.11,3.61,1.11,5.59v85.09 c0,1.97-0.4,3.86-1.11,5.59c-0.74,1.79-1.84,3.41-3.19,4.76c-1.35,1.35-2.96,2.44-4.76,3.19c-1.72,0.72-3.61,1.11-5.59,1.11H14.64 c-1.97,0-3.86-0.4-5.59-1.11c-1.79-0.74-3.41-1.84-4.76-3.19c-1.35-1.35-2.44-2.96-3.19-4.76C0.4,111.18,0,109.29,0,107.32V22.23 c0-1.97,0.4-3.86,1.11-5.59c0.74-1.79,1.84-3.41,3.19-4.76c1.35-1.35,2.96-2.44,4.76-3.19C10.78,7.98,12.67,7.59,14.64,7.59 L14.64,7.59z M16.61,102.14c1.13,0,2.16,0.46,2.9,1.2c0.74,0.74,1.2,1.77,1.2,2.9s-0.46,2.16-1.2,2.9c-0.74,0.74-1.77,1.2-2.9,1.2 c-1.13,0-2.15-0.46-2.9-1.2c-0.74-0.74-1.2-1.77-1.2-2.9s0.46-2.16,1.2-2.9l0.02-0.02C14.48,102.59,15.49,102.14,16.61,102.14 L16.61,102.14z M16.61,21c1.13,0,2.16,0.46,2.9,1.2c0.74,0.74,1.2,1.77,1.2,2.9c0,1.13-0.46,2.15-1.2,2.9 c-0.74,0.74-1.77,1.2-2.9,1.2c-1.13,0-2.15-0.46-2.9-1.2l0,0c-0.74-0.74-1.2-1.77-1.2-2.9c0-1.13,0.46-2.16,1.2-2.9l0.02-0.02 C14.48,21.45,15.49,21,16.61,21L16.61,21z M106.27,21c1.13,0,2.15,0.46,2.9,1.2c0.74,0.74,1.2,1.77,1.2,2.9 c0,1.13-0.46,2.15-1.2,2.9l0,0c-0.74,0.74-1.77,1.2-2.9,1.2c-1.13,0-2.16-0.46-2.9-1.2l-0.02-0.02c-0.73-0.74-1.18-1.76-1.18-2.87 c0-1.13,0.46-2.16,1.2-2.9C104.11,21.46,105.14,21,106.27,21L106.27,21z M106.27,102.14c1.13,0,2.15,0.46,2.9,1.2 c0.74,0.74,1.2,1.77,1.2,2.9s-0.46,2.16-1.2,2.9l-0.02,0.02c-0.74,0.73-1.76,1.18-2.87,1.18c-1.13,0-2.16-0.46-2.9-1.2 c-0.74-0.74-1.2-1.77-1.2-2.9s0.46-2.16,1.2-2.9C104.11,102.6,105.14,102.14,106.27,102.14L106.27,102.14z M37.73,12.77H14.64 c-1.28,0-2.49,0.26-3.61,0.72c-1.16,0.48-2.2,1.19-3.08,2.06c-0.88,0.88-1.58,1.92-2.06,3.08c-0.46,1.11-0.72,2.33-0.72,3.61v85.09 c0,1.28,0.26,2.5,0.72,3.61c0.48,1.16,1.19,2.2,2.06,3.08c0.88,0.88,1.92,1.58,3.08,2.06c1.11,0.46,2.33,0.72,3.61,0.72h93.59 c1.28,0,2.49-0.26,3.61-0.72c1.16-0.48,2.2-1.19,3.08-2.06c0.88-0.88,1.58-1.92,2.06-3.08c0.46-1.11,0.72-2.33,0.72-3.61V22.23 c0-1.28-0.26-2.5-0.72-3.61c-0.48-1.16-1.19-2.2-2.06-3.08c-0.88-0.88-1.92-1.58-3.08-2.06c-1.11-0.46-2.33-0.72-3.61-0.72H83.96 c-0.03,0-0.07,0-0.1-0.01c-0.26-0.01-0.53-0.06-0.78-0.15l-0.02-0.01c-0.27-0.1-0.52-0.24-0.75-0.44 c-1.31-1.09-2.77-2.08-4.36-2.95c-1.57-0.86-3.26-1.6-5.05-2.21c-1.76-0.6-3.62-1.06-5.56-1.37c-1.88-0.3-3.83-0.46-5.85-0.46 c-2.01,0-3.97,0.16-5.85,0.46C53.72,5.95,51.86,6.41,50.1,7c-1.76,0.59-3.42,1.32-4.96,2.16c-1.55,0.84-2.99,1.81-4.3,2.87 c-0.23,0.23-0.51,0.41-0.82,0.53c-0.31,0.13-0.64,0.19-0.98,0.19H37.73L37.73,12.77z M80,39.17c-0.41,0-0.79-0.17-1.06-0.44l0,0 c-0.27-0.27-0.44-0.65-0.44-1.06c0-0.42,0.17-0.79,0.44-1.06c0.27-0.27,0.65-0.44,1.06-0.44h3.02c-0.19-2.33-0.76-4.56-1.65-6.62 c-0.91-2.13-2.16-4.08-3.68-5.78l-1.84,1.84l-0.02,0.02c-0.29,0.28-0.67,0.42-1.04,0.42c-0.38,0-0.77-0.15-1.06-0.44h0 c-0.29-0.29-0.44-0.68-0.44-1.06c0-0.39,0.15-0.77,0.44-1.06l1.81-1.81c-1.72-1.46-3.68-2.64-5.81-3.5 c-2.06-0.83-4.29-1.34-6.61-1.49v3.23c0,0.42-0.17,0.79-0.44,1.06c-0.27,0.27-0.65,0.44-1.06,0.44c-0.42,0-0.79-0.17-1.06-0.44 c-0.27-0.27-0.44-0.65-0.44-1.06V16.7c-2.31,0.18-4.51,0.73-6.55,1.59c-2.11,0.89-4.04,2.1-5.74,3.58l2.1,2.1 c0.29,0.29,0.44,0.68,0.44,1.06c0,0.39-0.15,0.77-0.44,1.06c-0.29,0.29-0.68,0.44-1.06,0.44s-0.77-0.15-1.06-0.44l-2.1-2.1 c-1.48,1.71-2.69,3.65-3.57,5.77c-0.85,2.05-1.4,4.26-1.57,6.58h3.34c0.42,0,0.79,0.17,1.06,0.44c0.27,0.27,0.44,0.65,0.44,1.06 c0,0.41-0.17,0.79-0.44,1.06c-0.27,0.27-0.65,0.44-1.06,0.44h-3.35c0.15,2.34,0.68,4.58,1.53,6.65c0.87,2.14,2.09,4.1,3.57,5.82 l2.07-2.07c0.29-0.29,0.68-0.44,1.06-0.44c0.39,0,0.77,0.15,1.06,0.44c0.29,0.29,0.44,0.68,0.44,1.06c0,0.39-0.15,0.77-0.44,1.06 l-2.08,2.08c1.72,1.51,3.7,2.75,5.84,3.65c2.08,0.87,4.33,1.42,6.69,1.58V56.6c0-0.41,0.17-0.79,0.44-1.06l0,0 c0.27-0.27,0.65-0.44,1.06-0.44c0.41,0,0.79,0.17,1.06,0.44c0.27,0.27,0.44,0.65,0.44,1.06v2.59c2.36-0.17,4.62-0.72,6.71-1.59 c2.16-0.9,4.13-2.15,5.86-3.67l-1.97-1.97c-0.29-0.29-0.44-0.68-0.44-1.06c0-0.39,0.15-0.77,0.44-1.06 c0.29-0.29,0.68-0.44,1.06-0.44c0.39,0,0.77,0.15,1.06,0.44l1.95,1.95c1.49-1.74,2.71-3.73,3.58-5.89c0.84-2.1,1.36-4.36,1.5-6.72 H80L80,39.17z M63.55,40.51L63.55,40.51c-0.42,0.46-0.97,0.71-1.54,0.75c-0.58,0.04-1.17-0.14-1.65-0.56l-0.03-0.02 c-0.46-0.41-0.71-0.97-0.74-1.53c-0.04-0.58,0.14-1.17,0.56-1.65l7.86-8.99c0.41-0.47,0.98-0.73,1.56-0.77 c0.58-0.04,1.17,0.14,1.65,0.56c0.47,0.41,0.73,0.98,0.77,1.56c0.04,0.58-0.14,1.17-0.56,1.65C68.8,34.5,66.15,37.49,63.55,40.51 L63.55,40.51z"></path></g></svg>