<?xml version="1.0" encoding="UTF-8" ?>
<svg
   viewBox="0 0 24 24"
   xmlns="http://www.w3.org/2000/svg">
  <path d="m 15.81,18.76 -1.321,2.484 c -0.112,0.21 -0.291,0.214 -0.405,0 l -3.79,-7.127 a 1.565,1.565 0 0 0 -2.766,0 l -1.33,2.5 a 1.345,1.345 0 0 1 -1.19,0.715 H 1.017 v 1.35 H 5.01 a 2.692,2.692 0 0 0 2.38,-1.431 l 1.33,-2.5 c 0.108,-0.2 0.276,-0.2 0.384,0 l 3.79,7.127 a 1.58,1.58 0 0 0 2.788,0 L 17,19.4 a 1.346,1.346 0 0 1 1.189,-0.716 h 5.067 V 17.33 H 18.19 a 2.688,2.688 0 0 0 -2.38,1.43 z m 7.447,-7.43 H 18.19 a 2.688,2.688 0 0 0 -2.38,1.43 l -1.321,2.484 c -0.112,0.21 -0.291,0.214 -0.405,0 l -3.79,-7.127 a 1.566,1.566 0 0 0 -2.766,0 l -1.33,2.5 a 1.345,1.345 0 0 1 -1.19,0.715 H 1.017 v 1.35 H 5.01 a 2.692,2.692 0 0 0 2.38,-1.431 l 1.33,-2.5 c 0.108,-0.2 0.276,-0.2 0.384,0 l 3.79,7.127 a 1.58,1.58 0 0 0 2.788,0 L 17,13.4 a 1.346,1.346 0 0 1 1.189,-0.716 h 5.067 V 11.33 Z M 1.008,6.682 H 4.954 A 2.669,2.669 0 0 0 7.314,5.264 L 8.63,2.791 c 0.1,-0.192 0.265,-0.188 0.364,0 l 3.746,7.045 a 1.57,1.57 0 0 0 2.77,0 l 1.305,-2.455 a 1.322,1.322 0 0 1 1.169,-0.7 h 5.008 V 5.33 h -5.008 a 2.666,2.666 0 0 0 -2.36,1.418 L 14.318,9.2 c -0.107,0.2 -0.28,0.2 -0.386,0 L 10.186,2.158 a 1.556,1.556 0 0 0 -2.748,0 L 6.124,4.629 a 1.324,1.324 0 0 1 -1.17,0.7 H 1.008 Z" fill="#000000"/>
</svg>
